<svg xmlns="http://www.w3.org/2000/svg" width="110.2" height="17.2" viewBox="0 0 1102 172">
  <defs>
    <style>
      .cls-1 {
        fill: #6464ff;
      }

      .cls-1, .cls-2, .cls-3 {
        fill-rule: evenodd;
      }

      .cls-2 {
        fill: #aaf;
      }

      .cls-3 {
        fill: #fff;
      }
    </style>
  </defs>
  <path id="_2D_" data-name="2D  " class="cls-1" d="M48.248,59.619q0-16.046,2.011-21.5t8.56-5.449q4.136,0,6.894,4.191t2.758,10.778q0,13.175-9.192,29.22l-50.1,89.217H96.737V133.507H65.828L84.672,99.976a170.21,170.21,0,0,0,13.1-28.561,76.409,76.409,0,0,0,4.366-24.25q0-21.915-11.375-33.531T58.129,2.017q-12.87,0-22.234,4.73a32.329,32.329,0,0,0-13.9,12.574,49.374,49.374,0,0,0-5.975,18.023q-1.438,10.18-1.436,28.142H48.248V59.619Zm83.764,106.462h34.126a73.993,73.993,0,0,0,34.413-8.024q15.569-8.022,24.244-25.987t8.675-47.183q0-38.559-17.58-58.62T164.529,6.209H132.012V166.081ZM177.8,41.776q4.309,1.2,8.848,6.407t6.836,14.85a103.116,103.116,0,0,1,2.3,23.532q0,23.472-6.549,33.711t-22.406,11.676V40.219A52.613,52.613,0,0,1,177.8,41.776Z"/>
  <path id="_ARTIST_" data-name="     ARTIST " class="cls-2" d="M376.2,6.209H337.131L296.456,166.081h35.5l6.089-26.706h36.769l5.86,26.706h36.2ZM344.37,110.634q7.468-34.727,11.605-67.9h0.46q3.9,32.216,11.72,67.9H344.37Zm90.084,55.447h34.815V93.27h0.575L498,166.081h36.768L506.957,93.989A36.393,36.393,0,0,0,522.7,77.642a49.772,49.772,0,0,0,5.4-22.454q0-22.634-14.248-35.806T475.014,6.209h-40.56V166.081ZM487.021,42.255q5.343,4.791,5.343,15.927,0,16.408-23.095,16.885V37.105Q481.679,37.465,487.021,42.255Zm55.9,0.479h23.785V166.081h35.275V42.734H626V6.209H542.921V42.734ZM648.862,166.081h34.815V6.209H648.862V166.081Zm97.781,4.191q21.372,0,35.276-13.592t13.9-34.31a48.938,48.938,0,0,0-10.629-31.2q-10.629-13.472-20.969-20.9Q746.872,57.7,746.873,47.644a11.43,11.43,0,0,1,3.735-9.041q3.732-3.292,10.168-3.293,9.653,0,25.164,8.862V8.364a69.923,69.923,0,0,0-29.185-6.586q-19.88,0-32.4,13.053T711.828,48.6a49.371,49.371,0,0,0,8.1,27.6q8.1,12.395,26.14,26.765,7.469,5.989,10.514,10.179a15.019,15.019,0,0,1,3.045,8.982,13.476,13.476,0,0,1-3.792,10Q752.044,135.9,745.5,135.9q-11.264,0-27.807-10.06v37.244a64.152,64.152,0,0,0,28.955,7.185h0ZM809.265,42.734H833.05V166.081h35.275V42.734H892.34V6.209H809.265V42.734Z"/>
  <path id="_" data-name="&amp;" class="cls-3" d="M1026.98,118.937q-5.79-6.136-11.13-12.782t-10.04-13.577q-4.71-6.93-8.461-13.8a92.4,92.4,0,0,0,15.2-11.192,69.8,69.8,0,0,0,10.11-11.446,43.017,43.017,0,0,0,5.59-10.97,31.941,31.941,0,0,0,1.72-9.825,23.337,23.337,0,0,0-1.59-8.744,18.531,18.531,0,0,0-4.58-6.773,21.117,21.117,0,0,0-7.21-4.356,27.375,27.375,0,0,0-9.51-1.558A30.633,30.633,0,0,0,994.3,16.681a35.44,35.44,0,0,0-10.779,7.536,36.476,36.476,0,0,0-7.44,11.16,34.114,34.114,0,0,0-2.767,13.7,55.909,55.909,0,0,0,2.1,14.785A108.9,108.9,0,0,0,981.2,79.732a95.474,95.474,0,0,0-10.429,7.822,54.814,54.814,0,0,0-8.935,9.825,48.252,48.252,0,0,0-6.264,12.337,46.787,46.787,0,0,0-2.353,15.294,41.473,41.473,0,0,0,3.275,16.82,37.787,37.787,0,0,0,21.876,20.762,44.853,44.853,0,0,0,15.866,2.8,46.172,46.172,0,0,0,11.037-1.336,53.766,53.766,0,0,0,10.52-3.784,64.119,64.119,0,0,0,9.76-5.818,67.49,67.49,0,0,0,8.68-7.44q4.83,4,9.51,7.249a85.9,85.9,0,0,0,8.97,5.5,52.227,52.227,0,0,0,8.1,3.5,22.844,22.844,0,0,0,7,1.24,32.258,32.258,0,0,0,6.83-.763,59.607,59.607,0,0,0,6.78-1.876q3.24-1.111,6.07-2.321t4.87-2.162l-1.72-4.96a42.637,42.637,0,0,1-5.25,1.4,33.228,33.228,0,0,1-6.33.509,21.4,21.4,0,0,1-6.96-1.4,56.083,56.083,0,0,1-8.55-3.943,103.082,103.082,0,0,1-9.6-6.105q-5.025-3.561-10.18-7.949a81.361,81.361,0,0,0,7.76-16.057,49.107,49.107,0,0,0,2.8-16.184c0-1.017-.07-2.215-0.19-3.593a29.876,29.876,0,0,0-.8-4.451,34.869,34.869,0,0,0-1.68-4.96,25.664,25.664,0,0,0-2.87-5.055q3.51,0.255,7,.381t6.8,0.127q4.2,0,7.57-.223a29.163,29.163,0,0,0,5.79-.89,8.884,8.884,0,0,0,3.72-1.876,4.2,4.2,0,0,0,1.3-3.243,11.349,11.349,0,0,0-1.14-4.324c-3.27.509-6.4,0.933-9.41,1.272s-6.05.626-9.1,0.858-6.21.392-9.47,0.477-6.77.127-10.5,0.127a40.367,40.367,0,0,0-10.87-4.324,18.183,18.183,0,0,0-2.67,1.113,21.28,21.28,0,0,0-2.7,1.59,12.643,12.643,0,0,0-2.1,1.781,2.677,2.677,0,0,0-.86,1.749,2.093,2.093,0,0,0,.57,1.494,4.67,4.67,0,0,0,1.97,1.049,24.232,24.232,0,0,0,3.72.731q2.835,0.414,7.03.922a34.183,34.183,0,0,1,6.45,11.637,42.6,42.6,0,0,1,2.01,13.036,53.752,53.752,0,0,1-1.24,11.447,43.108,43.108,0,0,1-3.98,10.874Q1032.77,125.074,1026.98,118.937Zm-33.574-17.552q5.151,7.727,11.034,15.04t12.18,13.958q6.285,6.646,12.59,12.3a40.566,40.566,0,0,1-12.27,7.822,40.95,40.95,0,0,1-7.1,2.162,36.021,36.021,0,0,1-7.4.763,35.47,35.47,0,0,1-12.054-2.13,30.252,30.252,0,0,1-10.684-6.614,33.3,33.3,0,0,1-7.663-11.383,41.775,41.775,0,0,1-2.925-16.374,39.228,39.228,0,0,1,1.113-9.539,37.7,37.7,0,0,1,3.116-8.3,38.707,38.707,0,0,1,4.769-7.122,48.931,48.931,0,0,1,6.137-6.073A161.545,161.545,0,0,0,993.406,101.385ZM988.414,57.73a49.576,49.576,0,0,1-2.13-13.863,37.533,37.533,0,0,1,.827-7.917,21.839,21.839,0,0,1,2.671-6.868,14.236,14.236,0,0,1,4.833-4.833,13.986,13.986,0,0,1,7.375-1.812,12.529,12.529,0,0,1,10.05,4.8,16.689,16.689,0,0,1,2.76,5.278,20.814,20.814,0,0,1,.99,6.518,33.24,33.24,0,0,1-1.14,8.2,38.808,38.808,0,0,1-3.69,9.03,44.156,44.156,0,0,1-6.65,8.9,44.84,44.84,0,0,1-9.95,7.758A97.82,97.82,0,0,1,988.414,57.73Z"/>
</svg>
