<svg xmlns="http://www.w3.org/2000/svg" width="137.5" height="17.2" viewBox="0 0 1375 172">
  <defs>
    <style>
      .cls-1 {
        fill: #6464ff;
      }

      .cls-1, .cls-2 {
        fill-rule: evenodd;
      }

      .cls-2 {
        fill: #aaf;
      }
    </style>
  </defs>
  <path id="_3D" data-name="3D" class="cls-1" d="M48.534,53.2q0-9.932,1.675-13.861t6.642-3.927q10.625,0,10.626,18.943,0,8.779-3.176,12.648T53.731,70.875H42.181V102.87H52.807q8.083,0,11.262,3.523t3.176,12.532q0,19.4-10.857,19.4-11.088,0-11.319-14.207H11.919q0.923,20.331,13.514,31.937t32.341,11.608q13.167,0,22.985-4.908t14.958-15.824a50.992,50.992,0,0,0,5.14-21.888q0-27.6-20.791-38.348Q97.738,73.648,97.738,50.778q0-19.635-11.55-32.4T56.85,5.616A40.3,40.3,0,0,0,38.369,9.947a38.7,38.7,0,0,0-13.8,11.377,45.137,45.137,0,0,0-7.392,14.438q-2.139,7.393-2.368,20.675H48.534V53.2Zm81.2,110.422h34.305a76.961,76.961,0,0,0,34.593-7.739q15.649-7.737,24.371-25.064t8.721-45.509q0-37.191-17.672-56.539T162.421,9.427H129.733v154.2ZM175.761,43.732q4.332,1.156,8.894,6.179t6.873,14.322a95.632,95.632,0,0,1,2.31,22.7q0,22.639-6.584,32.515t-22.523,11.261V42.23A54.971,54.971,0,0,1,175.761,43.732Z"/>
  <path id="_GENERALIST" data-name="      GENERALIST" class="cls-2" d="M360.225,77.228v29.915h16.286q-0.579,25.066-18.134,25.065-10.974,0-16-10.915t-5.024-34.132q0-24.949,4.447-36.095T356.876,39.92q6.237,0,9.818,3.407t7.738,10.8l33.381-13.745Q393.026,5.154,359.994,5.153q-29.453,0-44.757,20.5t-15.305,60.12q0,39.273,15.362,60.466t43.545,21.195q25.179,0,39.676-17.152t14.5-47.183V77.228H360.225Zm78.543,86.4H509.8V130.706H473.766V102.639h31.07V70.644h-31.07V42.23h35.806V9.427h-70.8v154.2Zm98.64,0h35V95.247l-0.924-19.174,43.545,87.552h35.922V9.427h-35V81.733l1.271,16.632L572.753,9.427H537.408v154.2Zm146.69,0h71.035V130.706H719.1V102.639h31.071V70.644H719.1V42.23H754.9V9.427H684.1v154.2Zm98.641,0h35V93.4h0.578l28.3,70.227h36.962L855.622,94.092a35.8,35.8,0,0,0,15.824-15.766,46.43,46.43,0,0,0,5.428-21.657q0-21.83-14.322-34.536T823.512,9.427H782.739v154.2ZM835.582,44.194q5.37,4.621,5.371,15.362,0,15.826-23.217,16.286V39.227Q830.212,39.574,835.582,44.194ZM970.317,9.427H931.046l-40.889,154.2h35.691l6.122-25.758h36.961l5.891,25.758h36.388Zm-32,100.72q7.508-33.5,11.666-65.491h0.462q3.925,31.072,11.782,65.491h-23.91Zm90.558,53.478h62.72V127.934h-27.72V9.427h-35v154.2Zm87.66,0h35V9.427h-35v154.2Zm98.3,4.042q21.48,0,35.46-13.109t13.97-33.092a46,46,0,0,0-10.68-30.089q-10.68-12.994-21.08-20.155-17.445-12.128-17.44-21.83a10.823,10.823,0,0,1,3.75-8.721c2.51-2.117,5.91-3.176,10.23-3.176q9.69,0,25.29,8.547V11.506A72.763,72.763,0,0,0,1225,5.153q-19.98,0-32.57,12.59t-12.59,32.572a46.3,46.3,0,0,0,8.14,26.624q8.145,11.955,26.28,25.815,7.515,5.778,10.57,9.818a14.094,14.094,0,0,1,3.06,8.663,12.714,12.714,0,0,1-3.81,9.644q-3.81,3.639-10.4,3.639-11.31,0-27.95-9.7v35.921a66.715,66.715,0,0,0,29.11,6.93h0Zm62.95-123.011h23.91V163.625h35.46V44.656h24.14V9.427h-83.51V44.656Z"/>
</svg>
